# xmcd
#
# Track frame offsets: 
#        150
#        18028
#        32724
#        51408
#        66181
#        83294
#        96422
#        111697
#        127201
#        142490
#        157211
#        170736
#        187087
#        206497
#        216173
#        230553
#
# Disc length: 3218 seconds
#
# Revision: 3
# Processed by: cddbd v1.5.2PL0 Copyright (c) Steve Scherf et al.
# Submitted via: ExactAudioCopy v0.99pb5
#
DISCID=fc0c9010
DTITLE=Various Artist - Schlager Souvenirs Vol.2 [CD3)
DYEAR=1997
DGENRE=Oldie
TTITLE0=Drafi Deutscher - Wenn man liebt
TTITLE1=Sandy van Ry - Herz ohne Ziel
TTITLE2=Ireen Sheer - Lass Dich fallen
TTITLE3=Oliver Simon - Sieger
TTITLE4=Gitti and Erika - Manolito
TTITLE5=Gerhard Wendland - Tanze mit mir in den Morgen
TTITLE6=Ulla Norden - Du bist mein schoenstes Geheimnis
TTITLE7=Michael Stein - Liebling wach auf
TTITLE8=Nina Falk - Hoer auf Dein Herz
TTITLE9=Ronny Krappmann - Träume zu teil'n
TTITLE10=Cindy and Bert - Milly's Nachtcafe
TTITLE11=Susann Kristin - Kuess mich lieber
TTITLE12=Stefaan Peters - Leichtes Spiel
TTITLE13=Mary Roos - Lady Sunshine and Mr Moon
TTITLE14=Erik Sylvester - Es ist der Himmel, wenn man liebt
TTITLE15=Mona Baptiste - Mondschein (Dark Moon)
EXTD=
EXTT0=
EXTT1=
EXTT2=
EXTT3=
EXTT4=
EXTT5=
EXTT6=
EXTT7=
EXTT8=
EXTT9=
EXTT10=
EXTT11=
EXTT12=
EXTT13=
EXTT14=
EXTT15=
PLAYORDER=
